<mxfile host="app.diagrams.net" modified="2022-10-17T21:39:48.755Z" agent="5.0 (Windows NT 10.0; Win64; x64) AppleWebKit/537.36 (KHTML, like Gecko) Chrome/104.0.5112.124 YaBrowser/22.9.3.888 Yowser/2.5 Safari/537.36" etag="i8az2CwSlnpyLEjr9wFy" version="20.4.1" type="github">
  <diagram id="TFFwjVLHERwvGSdFPh85" name="Страница 1">
    <mxGraphModel dx="773" dy="488" grid="1" gridSize="10" guides="1" tooltips="1" connect="1" arrows="1" fold="1" page="1" pageScale="1" pageWidth="2336" pageHeight="1654" math="0" shadow="0">
      <root>
        <mxCell id="0" />
        <mxCell id="1" parent="0" />
        <mxCell id="UoKDYYbOme_sjAcY1qkX-2" value="Guzzlord" style="swimlane;fontStyle=1;align=center;verticalAlign=top;childLayout=stackLayout;horizontal=1;startSize=26;horizontalStack=0;resizeParent=1;resizeParentMax=0;resizeLast=0;collapsible=1;marginBottom=0;labelBackgroundColor=none;fontColor=default;" parent="1" vertex="1">
          <mxGeometry x="510.0000000000001" y="30" width="160" height="54" as="geometry" />
        </mxCell>
        <mxCell id="mUugw-47ZB0gmxYQDX0V-1" value="+ Guzzlord(String, int)" style="text;html=1;strokeColor=none;fillColor=none;align=left;verticalAlign=middle;whiteSpace=wrap;rounded=0;" parent="UoKDYYbOme_sjAcY1qkX-2" vertex="1">
          <mxGeometry y="26" width="160" height="24" as="geometry" />
        </mxCell>
        <mxCell id="UoKDYYbOme_sjAcY1qkX-4" value="" style="line;strokeWidth=1;fillColor=none;align=left;verticalAlign=middle;spacingTop=-1;spacingLeft=3;spacingRight=3;rotatable=0;labelPosition=right;points=[];portConstraint=eastwest;strokeColor=inherit;labelBackgroundColor=none;fontColor=default;" parent="UoKDYYbOme_sjAcY1qkX-2" vertex="1">
          <mxGeometry y="50" width="160" height="4" as="geometry" />
        </mxCell>
        <mxCell id="UoKDYYbOme_sjAcY1qkX-6" value="Cranidos" style="swimlane;fontStyle=1;align=center;verticalAlign=top;childLayout=stackLayout;horizontal=1;startSize=26;horizontalStack=0;resizeParent=1;resizeParentMax=0;resizeLast=0;collapsible=1;marginBottom=0;labelBackgroundColor=none;fontColor=default;" parent="1" vertex="1">
          <mxGeometry x="510.0000000000001" y="120" width="160" height="48" as="geometry">
            <mxRectangle x="320.0000000000001" y="150" width="90" height="30" as="alternateBounds" />
          </mxGeometry>
        </mxCell>
        <mxCell id="mUugw-47ZB0gmxYQDX0V-2" value="+ Cranidos(String, int)" style="text;strokeColor=none;fillColor=none;align=left;verticalAlign=middle;rounded=0;whiteSpace=wrap;html=1;" parent="UoKDYYbOme_sjAcY1qkX-6" vertex="1">
          <mxGeometry y="26" width="160" height="14" as="geometry" />
        </mxCell>
        <mxCell id="UoKDYYbOme_sjAcY1qkX-8" value="" style="line;strokeWidth=1;fillColor=none;align=left;verticalAlign=middle;spacingTop=-1;spacingLeft=3;spacingRight=3;rotatable=0;labelPosition=right;points=[];portConstraint=eastwest;strokeColor=inherit;labelBackgroundColor=none;fontColor=default;" parent="UoKDYYbOme_sjAcY1qkX-6" vertex="1">
          <mxGeometry y="40" width="160" height="8" as="geometry" />
        </mxCell>
        <mxCell id="UoKDYYbOme_sjAcY1qkX-10" value="Bellsprout" style="swimlane;fontStyle=1;align=center;verticalAlign=middle;childLayout=stackLayout;horizontal=1;startSize=26;horizontalStack=0;resizeParent=1;resizeParentMax=0;resizeLast=0;collapsible=1;marginBottom=0;labelBackgroundColor=none;fontColor=default;" parent="1" vertex="1">
          <mxGeometry x="510.0000000000001" y="215" width="160" height="48" as="geometry" />
        </mxCell>
        <mxCell id="mUugw-47ZB0gmxYQDX0V-5" value="+ Bellsprout(String, int)" style="text;html=1;strokeColor=none;fillColor=none;align=left;verticalAlign=middle;whiteSpace=wrap;rounded=0;" parent="UoKDYYbOme_sjAcY1qkX-10" vertex="1">
          <mxGeometry y="26" width="160" height="14" as="geometry" />
        </mxCell>
        <mxCell id="UoKDYYbOme_sjAcY1qkX-12" value="" style="line;strokeWidth=1;fillColor=none;align=left;verticalAlign=middle;spacingTop=-1;spacingLeft=3;spacingRight=3;rotatable=0;labelPosition=right;points=[];portConstraint=eastwest;strokeColor=inherit;labelBackgroundColor=none;fontColor=default;" parent="UoKDYYbOme_sjAcY1qkX-10" vertex="1">
          <mxGeometry y="40" width="160" height="8" as="geometry" />
        </mxCell>
        <mxCell id="UoKDYYbOme_sjAcY1qkX-21" value="Rampardos" style="swimlane;fontStyle=1;align=center;verticalAlign=top;childLayout=stackLayout;horizontal=1;startSize=26;horizontalStack=0;resizeParent=1;resizeParentMax=0;resizeLast=0;collapsible=1;marginBottom=0;labelBackgroundColor=none;fontColor=default;" parent="1" vertex="1">
          <mxGeometry x="730.0000000000001" y="120" width="160" height="48" as="geometry" />
        </mxCell>
        <mxCell id="mUugw-47ZB0gmxYQDX0V-3" value="+&amp;nbsp;Rampardos(String, int)" style="text;html=1;strokeColor=none;fillColor=none;align=left;verticalAlign=middle;whiteSpace=wrap;rounded=0;" parent="UoKDYYbOme_sjAcY1qkX-21" vertex="1">
          <mxGeometry y="26" width="160" height="14" as="geometry" />
        </mxCell>
        <mxCell id="UoKDYYbOme_sjAcY1qkX-23" value="" style="line;strokeWidth=1;fillColor=none;align=left;verticalAlign=middle;spacingTop=-1;spacingLeft=3;spacingRight=3;rotatable=0;labelPosition=right;points=[];portConstraint=eastwest;strokeColor=inherit;labelBackgroundColor=none;fontColor=default;" parent="UoKDYYbOme_sjAcY1qkX-21" vertex="1">
          <mxGeometry y="40" width="160" height="8" as="geometry" />
        </mxCell>
        <mxCell id="UoKDYYbOme_sjAcY1qkX-25" value="Weepinbell" style="swimlane;fontStyle=1;align=center;verticalAlign=top;childLayout=stackLayout;horizontal=1;startSize=26;horizontalStack=0;resizeParent=1;resizeParentMax=0;resizeLast=0;collapsible=1;marginBottom=0;labelBackgroundColor=none;fontColor=default;" parent="1" vertex="1">
          <mxGeometry x="730.0000000000001" y="215" width="160" height="48" as="geometry" />
        </mxCell>
        <mxCell id="mUugw-47ZB0gmxYQDX0V-6" value="+ Weepinbell(String, int)" style="text;html=1;strokeColor=none;fillColor=none;align=left;verticalAlign=middle;whiteSpace=wrap;rounded=0;" parent="UoKDYYbOme_sjAcY1qkX-25" vertex="1">
          <mxGeometry y="26" width="160" height="14" as="geometry" />
        </mxCell>
        <mxCell id="UoKDYYbOme_sjAcY1qkX-27" value="" style="line;strokeWidth=1;fillColor=none;align=left;verticalAlign=middle;spacingTop=-1;spacingLeft=3;spacingRight=3;rotatable=0;labelPosition=right;points=[];portConstraint=eastwest;strokeColor=inherit;labelBackgroundColor=none;fontColor=default;" parent="UoKDYYbOme_sjAcY1qkX-25" vertex="1">
          <mxGeometry y="40" width="160" height="8" as="geometry" />
        </mxCell>
        <mxCell id="UoKDYYbOme_sjAcY1qkX-28" value="Victreebel" style="swimlane;fontStyle=1;align=center;verticalAlign=top;childLayout=stackLayout;horizontal=1;startSize=26;horizontalStack=0;resizeParent=1;resizeParentMax=0;resizeLast=0;collapsible=1;marginBottom=0;labelBackgroundColor=none;fontColor=default;" parent="1" vertex="1">
          <mxGeometry x="953" y="215" width="160" height="48" as="geometry" />
        </mxCell>
        <mxCell id="mUugw-47ZB0gmxYQDX0V-4" value="+ Victreebel(String, int)" style="text;html=1;strokeColor=none;fillColor=none;align=left;verticalAlign=middle;whiteSpace=wrap;rounded=0;" parent="UoKDYYbOme_sjAcY1qkX-28" vertex="1">
          <mxGeometry y="26" width="160" height="14" as="geometry" />
        </mxCell>
        <mxCell id="UoKDYYbOme_sjAcY1qkX-30" value="" style="line;strokeWidth=1;fillColor=none;align=left;verticalAlign=middle;spacingTop=-1;spacingLeft=3;spacingRight=3;rotatable=0;labelPosition=right;points=[];portConstraint=eastwest;strokeColor=inherit;labelBackgroundColor=none;fontColor=default;" parent="UoKDYYbOme_sjAcY1qkX-28" vertex="1">
          <mxGeometry y="40" width="160" height="8" as="geometry" />
        </mxCell>
        <mxCell id="UoKDYYbOme_sjAcY1qkX-42" value="AncientPower" style="swimlane;fontStyle=1;align=center;verticalAlign=top;childLayout=stackLayout;horizontal=1;startSize=26;horizontalStack=0;resizeParent=1;resizeParentMax=0;resizeLast=0;collapsible=1;marginBottom=0;labelBackgroundColor=none;fontColor=default;" parent="1" vertex="1">
          <mxGeometry x="710" y="300" width="250" height="114" as="geometry" />
        </mxCell>
        <mxCell id="mUugw-47ZB0gmxYQDX0V-7" value="+ AncientPower(String, int)" style="text;html=1;strokeColor=none;fillColor=none;align=left;verticalAlign=middle;whiteSpace=wrap;rounded=0;" parent="UoKDYYbOme_sjAcY1qkX-42" vertex="1">
          <mxGeometry y="26" width="250" height="24" as="geometry" />
        </mxCell>
        <mxCell id="UoKDYYbOme_sjAcY1qkX-44" value="" style="line;strokeWidth=1;fillColor=none;align=left;verticalAlign=middle;spacingTop=-1;spacingLeft=3;spacingRight=3;rotatable=0;labelPosition=right;points=[];portConstraint=eastwest;strokeColor=inherit;labelBackgroundColor=none;fontColor=default;" parent="UoKDYYbOme_sjAcY1qkX-42" vertex="1">
          <mxGeometry y="50" width="250" height="8" as="geometry" />
        </mxCell>
        <mxCell id="UoKDYYbOme_sjAcY1qkX-45" value="+ AncientPower()&#xa;+ applySelfEffects(Pokemon)&#xa;+ describe(): String" style="text;strokeColor=none;fillColor=none;align=left;verticalAlign=top;spacingLeft=4;spacingRight=4;overflow=hidden;rotatable=0;points=[[0,0.5],[1,0.5]];portConstraint=eastwest;labelBackgroundColor=none;fontColor=default;" parent="UoKDYYbOme_sjAcY1qkX-42" vertex="1">
          <mxGeometry y="58" width="250" height="56" as="geometry" />
        </mxCell>
        <mxCell id="UoKDYYbOme_sjAcY1qkX-48" value="Facade" style="swimlane;fontStyle=1;align=center;verticalAlign=top;childLayout=stackLayout;horizontal=1;startSize=26;horizontalStack=0;resizeParent=1;resizeParentMax=0;resizeLast=0;collapsible=1;marginBottom=0;labelBackgroundColor=none;fontColor=default;" parent="1" vertex="1">
          <mxGeometry x="710.0000000000001" y="690" width="250" height="114" as="geometry" />
        </mxCell>
        <mxCell id="mUugw-47ZB0gmxYQDX0V-11" value="+ Facade(String, int)" style="text;html=1;strokeColor=none;fillColor=none;align=left;verticalAlign=middle;whiteSpace=wrap;rounded=0;" parent="UoKDYYbOme_sjAcY1qkX-48" vertex="1">
          <mxGeometry y="26" width="250" height="24" as="geometry" />
        </mxCell>
        <mxCell id="UoKDYYbOme_sjAcY1qkX-49" value="" style="line;strokeWidth=1;fillColor=none;align=left;verticalAlign=middle;spacingTop=-1;spacingLeft=3;spacingRight=3;rotatable=0;labelPosition=right;points=[];portConstraint=eastwest;strokeColor=inherit;labelBackgroundColor=none;fontColor=default;" parent="UoKDYYbOme_sjAcY1qkX-48" vertex="1">
          <mxGeometry y="50" width="250" height="8" as="geometry" />
        </mxCell>
        <mxCell id="UoKDYYbOme_sjAcY1qkX-50" value="+ Facade()&#xa;+ applySelfEffects(Pokemon)&#xa;+ describe(): String" style="text;strokeColor=none;fillColor=none;align=left;verticalAlign=top;spacingLeft=4;spacingRight=4;overflow=hidden;rotatable=0;points=[[0,0.5],[1,0.5]];portConstraint=eastwest;labelBackgroundColor=none;fontColor=default;" parent="UoKDYYbOme_sjAcY1qkX-48" vertex="1">
          <mxGeometry y="58" width="250" height="56" as="geometry" />
        </mxCell>
        <mxCell id="UoKDYYbOme_sjAcY1qkX-51" value="FocusEnergy" style="swimlane;fontStyle=1;align=center;verticalAlign=top;childLayout=stackLayout;horizontal=1;startSize=26;horizontalStack=0;resizeParent=1;resizeParentMax=0;resizeLast=0;collapsible=1;marginBottom=0;labelBackgroundColor=none;fontColor=default;" parent="1" vertex="1">
          <mxGeometry x="710.0000000000001" y="1320" width="250" height="114" as="geometry" />
        </mxCell>
        <mxCell id="mUugw-47ZB0gmxYQDX0V-16" value="+ FocusEnergy(String, int)" style="text;html=1;strokeColor=none;fillColor=none;align=left;verticalAlign=middle;whiteSpace=wrap;rounded=0;" parent="UoKDYYbOme_sjAcY1qkX-51" vertex="1">
          <mxGeometry y="26" width="250" height="24" as="geometry" />
        </mxCell>
        <mxCell id="UoKDYYbOme_sjAcY1qkX-52" value="" style="line;strokeWidth=1;fillColor=none;align=left;verticalAlign=middle;spacingTop=-1;spacingLeft=3;spacingRight=3;rotatable=0;labelPosition=right;points=[];portConstraint=eastwest;strokeColor=inherit;labelBackgroundColor=none;fontColor=default;" parent="UoKDYYbOme_sjAcY1qkX-51" vertex="1">
          <mxGeometry y="50" width="250" height="8" as="geometry" />
        </mxCell>
        <mxCell id="UoKDYYbOme_sjAcY1qkX-53" value="+ FocusEnergy()&#xa;+ applySelfEffects(Pokemon, Pokemon)&#xa;+ describe(): String" style="text;strokeColor=none;fillColor=none;align=left;verticalAlign=top;spacingLeft=4;spacingRight=4;overflow=hidden;rotatable=0;points=[[0,0.5],[1,0.5]];portConstraint=eastwest;labelBackgroundColor=none;fontColor=default;" parent="UoKDYYbOme_sjAcY1qkX-51" vertex="1">
          <mxGeometry y="58" width="250" height="56" as="geometry" />
        </mxCell>
        <mxCell id="UoKDYYbOme_sjAcY1qkX-56" value="LeafBlade" style="swimlane;fontStyle=1;align=center;verticalAlign=top;childLayout=stackLayout;horizontal=1;startSize=26;horizontalStack=0;resizeParent=1;resizeParentMax=0;resizeLast=0;collapsible=1;marginBottom=0;labelBackgroundColor=none;fontColor=default;" parent="1" vertex="1">
          <mxGeometry x="710.0000000000001" y="930" width="260" height="114" as="geometry" />
        </mxCell>
        <mxCell id="mUugw-47ZB0gmxYQDX0V-13" value="+ LeafBlade(String, int)" style="text;html=1;strokeColor=none;fillColor=none;align=left;verticalAlign=middle;whiteSpace=wrap;rounded=0;" parent="UoKDYYbOme_sjAcY1qkX-56" vertex="1">
          <mxGeometry y="26" width="260" height="24" as="geometry" />
        </mxCell>
        <mxCell id="UoKDYYbOme_sjAcY1qkX-57" value="" style="line;strokeWidth=1;fillColor=none;align=left;verticalAlign=middle;spacingTop=-1;spacingLeft=3;spacingRight=3;rotatable=0;labelPosition=right;points=[];portConstraint=eastwest;strokeColor=inherit;labelBackgroundColor=none;fontColor=default;" parent="UoKDYYbOme_sjAcY1qkX-56" vertex="1">
          <mxGeometry y="50" width="260" height="8" as="geometry" />
        </mxCell>
        <mxCell id="UoKDYYbOme_sjAcY1qkX-58" value="+ LeafBlade()&#xa;+ calcCriticalHit(Pokemon, Pokemon): double&#xa;+ describe(): String" style="text;strokeColor=none;fillColor=none;align=left;verticalAlign=top;spacingLeft=4;spacingRight=4;overflow=hidden;rotatable=0;points=[[0,0.5],[1,0.5]];portConstraint=eastwest;labelBackgroundColor=none;fontColor=default;" parent="UoKDYYbOme_sjAcY1qkX-56" vertex="1">
          <mxGeometry y="58" width="260" height="56" as="geometry" />
        </mxCell>
        <mxCell id="UoKDYYbOme_sjAcY1qkX-61" value="RazorLeaf" style="swimlane;fontStyle=1;align=center;verticalAlign=top;childLayout=stackLayout;horizontal=1;startSize=26;horizontalStack=0;resizeParent=1;resizeParentMax=0;resizeLast=0;collapsible=1;marginBottom=0;labelBackgroundColor=none;fontColor=default;" parent="1" vertex="1">
          <mxGeometry x="710.0000000000001" y="1061" width="260" height="114" as="geometry" />
        </mxCell>
        <mxCell id="mUugw-47ZB0gmxYQDX0V-14" value="+ RazorLeaf(String, int)" style="text;html=1;strokeColor=none;fillColor=none;align=left;verticalAlign=middle;whiteSpace=wrap;rounded=0;" parent="UoKDYYbOme_sjAcY1qkX-61" vertex="1">
          <mxGeometry y="26" width="260" height="24" as="geometry" />
        </mxCell>
        <mxCell id="UoKDYYbOme_sjAcY1qkX-62" value="" style="line;strokeWidth=1;fillColor=none;align=left;verticalAlign=middle;spacingTop=-1;spacingLeft=3;spacingRight=3;rotatable=0;labelPosition=right;points=[];portConstraint=eastwest;strokeColor=inherit;labelBackgroundColor=none;fontColor=default;" parent="UoKDYYbOme_sjAcY1qkX-61" vertex="1">
          <mxGeometry y="50" width="260" height="8" as="geometry" />
        </mxCell>
        <mxCell id="UoKDYYbOme_sjAcY1qkX-63" value="+ RazorLeaf()&#xa;+ calcCriticalHit(Pokemon, Pokemon): double&#xa;+ describe(): String" style="text;strokeColor=none;fillColor=none;align=left;verticalAlign=top;spacingLeft=4;spacingRight=4;overflow=hidden;rotatable=0;points=[[0,0.5],[1,0.5]];portConstraint=eastwest;labelBackgroundColor=none;fontColor=default;" parent="UoKDYYbOme_sjAcY1qkX-61" vertex="1">
          <mxGeometry y="58" width="260" height="56" as="geometry" />
        </mxCell>
        <mxCell id="UoKDYYbOme_sjAcY1qkX-65" value="Rest" style="swimlane;fontStyle=1;align=center;verticalAlign=top;childLayout=stackLayout;horizontal=1;startSize=26;horizontalStack=0;resizeParent=1;resizeParentMax=0;resizeLast=0;collapsible=1;marginBottom=0;labelBackgroundColor=none;fontColor=default;" parent="1" vertex="1">
          <mxGeometry x="710" y="1450" width="270" height="124" as="geometry" />
        </mxCell>
        <mxCell id="mUugw-47ZB0gmxYQDX0V-17" value="+ Rest(String, int)" style="text;html=1;strokeColor=none;fillColor=none;align=left;verticalAlign=middle;whiteSpace=wrap;rounded=0;" parent="UoKDYYbOme_sjAcY1qkX-65" vertex="1">
          <mxGeometry y="26" width="270" height="24" as="geometry" />
        </mxCell>
        <mxCell id="UoKDYYbOme_sjAcY1qkX-66" value="" style="line;strokeWidth=1;fillColor=none;align=left;verticalAlign=middle;spacingTop=-1;spacingLeft=3;spacingRight=3;rotatable=0;labelPosition=right;points=[];portConstraint=eastwest;strokeColor=inherit;labelBackgroundColor=none;fontColor=default;" parent="UoKDYYbOme_sjAcY1qkX-65" vertex="1">
          <mxGeometry y="50" width="270" height="8" as="geometry" />
        </mxCell>
        <mxCell id="UoKDYYbOme_sjAcY1qkX-67" value="+Rest()&#xa;+ applySelfEffects(Pokemon)&#xa;+ checkAccuracy(Pokemon, Pokemon): boolean&#xa;+ describe(): String" style="text;strokeColor=none;fillColor=none;align=left;verticalAlign=top;spacingLeft=4;spacingRight=4;overflow=hidden;rotatable=0;points=[[0,0.5],[1,0.5]];portConstraint=eastwest;labelBackgroundColor=none;fontColor=default;" parent="UoKDYYbOme_sjAcY1qkX-65" vertex="1">
          <mxGeometry y="58" width="270" height="66" as="geometry" />
        </mxCell>
        <mxCell id="UoKDYYbOme_sjAcY1qkX-69" value="SmartStrike" style="swimlane;fontStyle=1;align=center;verticalAlign=top;childLayout=stackLayout;horizontal=1;startSize=26;horizontalStack=0;resizeParent=1;resizeParentMax=0;resizeLast=0;collapsible=1;marginBottom=0;labelBackgroundColor=none;fontColor=default;" parent="1" vertex="1">
          <mxGeometry x="710.0000000000001" y="1191" width="270" height="114" as="geometry" />
        </mxCell>
        <mxCell id="mUugw-47ZB0gmxYQDX0V-15" value="+ SmartStrike(String, int)" style="text;html=1;strokeColor=none;fillColor=none;align=left;verticalAlign=middle;whiteSpace=wrap;rounded=0;" parent="UoKDYYbOme_sjAcY1qkX-69" vertex="1">
          <mxGeometry y="26" width="270" height="24" as="geometry" />
        </mxCell>
        <mxCell id="UoKDYYbOme_sjAcY1qkX-70" value="" style="line;strokeWidth=1;fillColor=none;align=left;verticalAlign=middle;spacingTop=-1;spacingLeft=3;spacingRight=3;rotatable=0;labelPosition=right;points=[];portConstraint=eastwest;strokeColor=inherit;labelBackgroundColor=none;fontColor=default;" parent="UoKDYYbOme_sjAcY1qkX-69" vertex="1">
          <mxGeometry y="50" width="270" height="8" as="geometry" />
        </mxCell>
        <mxCell id="UoKDYYbOme_sjAcY1qkX-71" value="+ SmartStrike()&#xa;+ checkAccuracy(Pokemon, Pokemon): boolean&#xa;+ describe(): String" style="text;strokeColor=none;fillColor=none;align=left;verticalAlign=top;spacingLeft=4;spacingRight=4;overflow=hidden;rotatable=0;points=[[0,0.5],[1,0.5]];portConstraint=eastwest;labelBackgroundColor=none;fontColor=default;" parent="UoKDYYbOme_sjAcY1qkX-69" vertex="1">
          <mxGeometry y="58" width="270" height="56" as="geometry" />
        </mxCell>
        <mxCell id="UoKDYYbOme_sjAcY1qkX-73" value="FocusBlast" style="swimlane;fontStyle=1;align=center;verticalAlign=top;childLayout=stackLayout;horizontal=1;startSize=26;horizontalStack=0;resizeParent=1;resizeParentMax=0;resizeLast=0;collapsible=1;marginBottom=0;labelBackgroundColor=none;fontColor=default;" parent="1" vertex="1">
          <mxGeometry x="710.0000000000001" y="430" width="250" height="114" as="geometry" />
        </mxCell>
        <mxCell id="mUugw-47ZB0gmxYQDX0V-8" value="+ FocusBlast(String, int)" style="text;html=1;strokeColor=none;fillColor=none;align=left;verticalAlign=middle;whiteSpace=wrap;rounded=0;" parent="UoKDYYbOme_sjAcY1qkX-73" vertex="1">
          <mxGeometry y="26" width="250" height="24" as="geometry" />
        </mxCell>
        <mxCell id="UoKDYYbOme_sjAcY1qkX-74" value="" style="line;strokeWidth=1;fillColor=none;align=left;verticalAlign=middle;spacingTop=-1;spacingLeft=3;spacingRight=3;rotatable=0;labelPosition=right;points=[];portConstraint=eastwest;strokeColor=inherit;labelBackgroundColor=none;fontColor=default;" parent="UoKDYYbOme_sjAcY1qkX-73" vertex="1">
          <mxGeometry y="50" width="250" height="8" as="geometry" />
        </mxCell>
        <mxCell id="UoKDYYbOme_sjAcY1qkX-75" value="+ FocusBlast()&#xa;+ applyOppEffects(Pokemon)&#xa;+ describe(): String" style="text;strokeColor=none;fillColor=none;align=left;verticalAlign=top;spacingLeft=4;spacingRight=4;overflow=hidden;rotatable=0;points=[[0,0.5],[1,0.5]];portConstraint=eastwest;labelBackgroundColor=none;fontColor=default;" parent="UoKDYYbOme_sjAcY1qkX-73" vertex="1">
          <mxGeometry y="58" width="250" height="56" as="geometry" />
        </mxCell>
        <mxCell id="UoKDYYbOme_sjAcY1qkX-77" value="PoisonPowder" style="swimlane;fontStyle=1;align=center;verticalAlign=top;childLayout=stackLayout;horizontal=1;startSize=26;horizontalStack=0;resizeParent=1;resizeParentMax=0;resizeLast=0;collapsible=1;marginBottom=0;labelBackgroundColor=none;fontColor=default;" parent="1" vertex="1">
          <mxGeometry x="710.0000000000001" y="1590" width="270" height="114" as="geometry" />
        </mxCell>
        <mxCell id="mUugw-47ZB0gmxYQDX0V-18" value="+ PoisonPowder(String, int)" style="text;html=1;strokeColor=none;fillColor=none;align=left;verticalAlign=middle;whiteSpace=wrap;rounded=0;" parent="UoKDYYbOme_sjAcY1qkX-77" vertex="1">
          <mxGeometry y="26" width="270" height="24" as="geometry" />
        </mxCell>
        <mxCell id="UoKDYYbOme_sjAcY1qkX-78" value="" style="line;strokeWidth=1;fillColor=none;align=left;verticalAlign=middle;spacingTop=-1;spacingLeft=3;spacingRight=3;rotatable=0;labelPosition=right;points=[];portConstraint=eastwest;strokeColor=inherit;labelBackgroundColor=none;fontColor=default;" parent="UoKDYYbOme_sjAcY1qkX-77" vertex="1">
          <mxGeometry y="50" width="270" height="8" as="geometry" />
        </mxCell>
        <mxCell id="UoKDYYbOme_sjAcY1qkX-79" value="+ PoisonPowder()&#xa;+ applyOppEffects(Pokemon)&#xa;+ describe(): String" style="text;strokeColor=none;fillColor=none;align=left;verticalAlign=top;spacingLeft=4;spacingRight=4;overflow=hidden;rotatable=0;points=[[0,0.5],[1,0.5]];portConstraint=eastwest;labelBackgroundColor=none;fontColor=default;" parent="UoKDYYbOme_sjAcY1qkX-77" vertex="1">
          <mxGeometry y="58" width="270" height="56" as="geometry" />
        </mxCell>
        <mxCell id="aX67te8Hi_f55JdvspHI-21" value="Venoshock" style="swimlane;fontStyle=1;align=center;verticalAlign=top;childLayout=stackLayout;horizontal=1;startSize=26;horizontalStack=0;resizeParent=1;resizeParentMax=0;resizeLast=0;collapsible=1;marginBottom=0;labelBackgroundColor=none;fontColor=default;" parent="1" vertex="1">
          <mxGeometry x="710.0000000000001" y="560" width="250" height="114" as="geometry" />
        </mxCell>
        <mxCell id="mUugw-47ZB0gmxYQDX0V-9" value="+ Venoshock(String, int)" style="text;html=1;strokeColor=none;fillColor=none;align=left;verticalAlign=middle;whiteSpace=wrap;rounded=0;" parent="aX67te8Hi_f55JdvspHI-21" vertex="1">
          <mxGeometry y="26" width="250" height="24" as="geometry" />
        </mxCell>
        <mxCell id="aX67te8Hi_f55JdvspHI-22" value="" style="line;strokeWidth=1;fillColor=none;align=left;verticalAlign=middle;spacingTop=-1;spacingLeft=3;spacingRight=3;rotatable=0;labelPosition=right;points=[];portConstraint=eastwest;strokeColor=inherit;labelBackgroundColor=none;fontColor=default;" parent="aX67te8Hi_f55JdvspHI-21" vertex="1">
          <mxGeometry y="50" width="250" height="8" as="geometry" />
        </mxCell>
        <mxCell id="aX67te8Hi_f55JdvspHI-23" value="+ Venoshock()&#xa;+ applyOppEffects(Pokemon)&#xa;+ describe(): String" style="text;strokeColor=none;fillColor=none;align=left;verticalAlign=top;spacingLeft=4;spacingRight=4;overflow=hidden;rotatable=0;points=[[0,0.5],[1,0.5]];portConstraint=eastwest;labelBackgroundColor=none;fontColor=default;fontStyle=0" parent="aX67te8Hi_f55JdvspHI-21" vertex="1">
          <mxGeometry y="58" width="250" height="56" as="geometry" />
        </mxCell>
        <mxCell id="KYD_TgcvMvNAuQUvM1Wy-1" value="VineWhip" style="swimlane;fontStyle=1;align=center;verticalAlign=top;childLayout=stackLayout;horizontal=1;startSize=26;horizontalStack=0;resizeParent=1;resizeParentMax=0;resizeLast=0;collapsible=1;marginBottom=0;labelBackgroundColor=none;fontColor=default;" parent="1" vertex="1">
          <mxGeometry x="710.0000000000001" y="820" width="250" height="94" as="geometry" />
        </mxCell>
        <mxCell id="mUugw-47ZB0gmxYQDX0V-12" value="+ VineWhip(String, int)" style="text;html=1;strokeColor=none;fillColor=none;align=left;verticalAlign=middle;whiteSpace=wrap;rounded=0;" parent="KYD_TgcvMvNAuQUvM1Wy-1" vertex="1">
          <mxGeometry y="26" width="250" height="24" as="geometry" />
        </mxCell>
        <mxCell id="KYD_TgcvMvNAuQUvM1Wy-2" value="" style="line;strokeWidth=1;fillColor=none;align=left;verticalAlign=middle;spacingTop=-1;spacingLeft=3;spacingRight=3;rotatable=0;labelPosition=right;points=[];portConstraint=eastwest;strokeColor=inherit;labelBackgroundColor=none;fontColor=default;" parent="KYD_TgcvMvNAuQUvM1Wy-1" vertex="1">
          <mxGeometry y="50" width="250" height="8" as="geometry" />
        </mxCell>
        <mxCell id="KYD_TgcvMvNAuQUvM1Wy-3" value="+ VineWhip()&#xa;+ describe(): String" style="text;strokeColor=none;fillColor=none;align=left;verticalAlign=top;spacingLeft=4;spacingRight=4;overflow=hidden;rotatable=0;points=[[0,0.5],[1,0.5]];portConstraint=eastwest;labelBackgroundColor=none;fontColor=default;" parent="KYD_TgcvMvNAuQUvM1Wy-1" vertex="1">
          <mxGeometry y="58" width="250" height="36" as="geometry" />
        </mxCell>
        <mxCell id="yW5Bokzwv89O6nSTkkF2-5" value="Pokemon" style="swimlane;fontStyle=1;align=center;verticalAlign=top;childLayout=stackLayout;horizontal=1;startSize=26;horizontalStack=0;resizeParent=1;resizeParentMax=0;resizeLast=0;collapsible=1;marginBottom=0;" parent="1" vertex="1">
          <mxGeometry x="30" y="30" width="330" height="480" as="geometry" />
        </mxCell>
        <mxCell id="yW5Bokzwv89O6nSTkkF2-6" value="- name String&#xa;- types List&lt;Type&gt;&#xa;- moves List&lt;Move&gt;&#xa;- preparedMove Move&#xa;- stage Effect&#xa;- condition Effect&#xa;- effects List&lt;Effect&gt;&#xa;- confusion int&#xa;- level int&#xa;- base double[]&#xa;" style="text;strokeColor=none;fillColor=none;align=left;verticalAlign=top;spacingLeft=4;spacingRight=4;overflow=hidden;rotatable=0;points=[[0,0.5],[1,0.5]];portConstraint=eastwest;" parent="yW5Bokzwv89O6nSTkkF2-5" vertex="1">
          <mxGeometry y="26" width="330" height="154" as="geometry" />
        </mxCell>
        <mxCell id="yW5Bokzwv89O6nSTkkF2-7" value="" style="line;strokeWidth=1;fillColor=none;align=left;verticalAlign=middle;spacingTop=-1;spacingLeft=3;spacingRight=3;rotatable=0;labelPosition=right;points=[];portConstraint=eastwest;strokeColor=inherit;" parent="yW5Bokzwv89O6nSTkkF2-5" vertex="1">
          <mxGeometry y="180" width="330" height="8" as="geometry" />
        </mxCell>
        <mxCell id="yW5Bokzwv89O6nSTkkF2-8" value="+ Pokemon(String, int)&#xa;+ Pokemon()&#xa;+ setStats(double, double, double, double, double, double)&#xa;+ setLevel(int)&#xa;+ getStat(Stat): double&#xa;+ hasType(Type): boolean&#xa;+ addEffect(Effect)&#xa;+ setCondition(Effect)&#xa;+ getCondition(): Status&#xa;+ confuse()&#xa;+ restore()&#xa;+ getHP(): double&#xa;+ setMod(Stat, int)&#xa;+ Type[] getTypes()&#xa;+ getLevel(): int&#xa;+ prepareMove()&#xa;+ isAlive(): boolean&#xa;+ attack(Pokemon): boolean&#xa;+ turn()&#xa;+ toString(): String&#xa;" style="text;strokeColor=none;fillColor=none;align=left;verticalAlign=top;spacingLeft=4;spacingRight=4;overflow=hidden;rotatable=0;points=[[0,0.5],[1,0.5]];portConstraint=eastwest;" parent="yW5Bokzwv89O6nSTkkF2-5" vertex="1">
          <mxGeometry y="188" width="330" height="292" as="geometry" />
        </mxCell>
        <mxCell id="yW5Bokzwv89O6nSTkkF2-9" value="SpecialMove" style="swimlane;fontStyle=1;align=center;verticalAlign=top;childLayout=stackLayout;horizontal=1;startSize=26;horizontalStack=0;resizeParent=1;resizeParentMax=0;resizeLast=0;collapsible=1;marginBottom=0;" parent="1" vertex="1">
          <mxGeometry x="398" y="477" width="270" height="114" as="geometry" />
        </mxCell>
        <mxCell id="yW5Bokzwv89O6nSTkkF2-10" value="+ SpecialMove()&#xa;+ SpecialMove(Type, double, double )&#xa;+ SpecialMove(Type, double, double, int, int)" style="text;strokeColor=none;fillColor=none;align=left;verticalAlign=top;spacingLeft=4;spacingRight=4;overflow=hidden;rotatable=0;points=[[0,0.5],[1,0.5]];portConstraint=eastwest;" parent="yW5Bokzwv89O6nSTkkF2-9" vertex="1">
          <mxGeometry y="26" width="270" height="54" as="geometry" />
        </mxCell>
        <mxCell id="yW5Bokzwv89O6nSTkkF2-11" value="" style="line;strokeWidth=1;fillColor=none;align=left;verticalAlign=middle;spacingTop=-1;spacingLeft=3;spacingRight=3;rotatable=0;labelPosition=right;points=[];portConstraint=eastwest;strokeColor=inherit;" parent="yW5Bokzwv89O6nSTkkF2-9" vertex="1">
          <mxGeometry y="80" width="270" height="8" as="geometry" />
        </mxCell>
        <mxCell id="yW5Bokzwv89O6nSTkkF2-12" value="+ calcAttDefFactor(Pokemon, Pokemon): double" style="text;strokeColor=none;fillColor=none;align=left;verticalAlign=top;spacingLeft=4;spacingRight=4;overflow=hidden;rotatable=0;points=[[0,0.5],[1,0.5]];portConstraint=eastwest;" parent="yW5Bokzwv89O6nSTkkF2-9" vertex="1">
          <mxGeometry y="88" width="270" height="26" as="geometry" />
        </mxCell>
        <mxCell id="yW5Bokzwv89O6nSTkkF2-13" value="PhysicalMove" style="swimlane;fontStyle=1;align=center;verticalAlign=top;childLayout=stackLayout;horizontal=1;startSize=26;horizontalStack=0;resizeParent=1;resizeParentMax=0;resizeLast=0;collapsible=1;marginBottom=0;" parent="1" vertex="1">
          <mxGeometry x="395" y="740" width="270" height="114" as="geometry" />
        </mxCell>
        <mxCell id="yW5Bokzwv89O6nSTkkF2-14" value="+ PhysicalMove()&#xa;+ PhysicalMove(Type, double, double )&#xa;+ PhysicalMove(Type, double, double, int, int)" style="text;strokeColor=none;fillColor=none;align=left;verticalAlign=top;spacingLeft=4;spacingRight=4;overflow=hidden;rotatable=0;points=[[0,0.5],[1,0.5]];portConstraint=eastwest;" parent="yW5Bokzwv89O6nSTkkF2-13" vertex="1">
          <mxGeometry y="26" width="270" height="54" as="geometry" />
        </mxCell>
        <mxCell id="yW5Bokzwv89O6nSTkkF2-15" value="" style="line;strokeWidth=1;fillColor=none;align=left;verticalAlign=middle;spacingTop=-1;spacingLeft=3;spacingRight=3;rotatable=0;labelPosition=right;points=[];portConstraint=eastwest;strokeColor=inherit;" parent="yW5Bokzwv89O6nSTkkF2-13" vertex="1">
          <mxGeometry y="80" width="270" height="8" as="geometry" />
        </mxCell>
        <mxCell id="yW5Bokzwv89O6nSTkkF2-16" value="+ calcAttDefFactor(Pokemon, Pokemon): double" style="text;strokeColor=none;fillColor=none;align=left;verticalAlign=top;spacingLeft=4;spacingRight=4;overflow=hidden;rotatable=0;points=[[0,0.5],[1,0.5]];portConstraint=eastwest;" parent="yW5Bokzwv89O6nSTkkF2-13" vertex="1">
          <mxGeometry y="88" width="270" height="26" as="geometry" />
        </mxCell>
        <mxCell id="yW5Bokzwv89O6nSTkkF2-17" value="StatusMove" style="swimlane;fontStyle=1;align=center;verticalAlign=top;childLayout=stackLayout;horizontal=1;startSize=26;horizontalStack=0;resizeParent=1;resizeParentMax=0;resizeLast=0;collapsible=1;marginBottom=0;" parent="1" vertex="1">
          <mxGeometry x="380" y="1165" width="270" height="140" as="geometry" />
        </mxCell>
        <mxCell id="yW5Bokzwv89O6nSTkkF2-18" value="+ StatusMove()&#xa;+ StatusMove(Type, double, double )&#xa;+ StatusMove(Type, double, double, int, int)" style="text;strokeColor=none;fillColor=none;align=left;verticalAlign=top;spacingLeft=4;spacingRight=4;overflow=hidden;rotatable=0;points=[[0,0.5],[1,0.5]];portConstraint=eastwest;" parent="yW5Bokzwv89O6nSTkkF2-17" vertex="1">
          <mxGeometry y="26" width="270" height="54" as="geometry" />
        </mxCell>
        <mxCell id="yW5Bokzwv89O6nSTkkF2-19" value="" style="line;strokeWidth=1;fillColor=none;align=left;verticalAlign=middle;spacingTop=-1;spacingLeft=3;spacingRight=3;rotatable=0;labelPosition=right;points=[];portConstraint=eastwest;strokeColor=inherit;" parent="yW5Bokzwv89O6nSTkkF2-17" vertex="1">
          <mxGeometry y="80" width="270" height="8" as="geometry" />
        </mxCell>
        <mxCell id="yW5Bokzwv89O6nSTkkF2-20" value="+ attack(Pokemon, Pokemon)&#xa;# applySelfEffects(Pokemon)&#xa;# applyOppEffects(Pokemon)&#xa;" style="text;strokeColor=none;fillColor=none;align=left;verticalAlign=top;spacingLeft=4;spacingRight=4;overflow=hidden;rotatable=0;points=[[0,0.5],[1,0.5]];portConstraint=eastwest;" parent="yW5Bokzwv89O6nSTkkF2-17" vertex="1">
          <mxGeometry y="88" width="270" height="52" as="geometry" />
        </mxCell>
        <mxCell id="o7UzDFGy0Nn9fbR3A7QY-2" value="" style="endArrow=block;endSize=16;endFill=0;html=1;rounded=0;fontColor=default;" edge="1" parent="1" source="UoKDYYbOme_sjAcY1qkX-2" target="yW5Bokzwv89O6nSTkkF2-5">
          <mxGeometry width="160" relative="1" as="geometry">
            <mxPoint x="410" y="150" as="sourcePoint" />
            <mxPoint x="529.9999999999999" y="80" as="targetPoint" />
            <Array as="points">
              <mxPoint x="440" y="57" />
              <mxPoint x="440" y="270" />
            </Array>
          </mxGeometry>
        </mxCell>
        <mxCell id="o7UzDFGy0Nn9fbR3A7QY-3" value="" style="endArrow=block;endSize=16;endFill=0;html=1;rounded=0;fontColor=default;" edge="1" parent="1" source="UoKDYYbOme_sjAcY1qkX-6" target="yW5Bokzwv89O6nSTkkF2-5">
          <mxGeometry width="160" relative="1" as="geometry">
            <mxPoint x="520" y="67.00000000000006" as="sourcePoint" />
            <mxPoint x="370" y="280" as="targetPoint" />
            <Array as="points">
              <mxPoint x="440" y="144" />
              <mxPoint x="440" y="270" />
            </Array>
          </mxGeometry>
        </mxCell>
        <mxCell id="o7UzDFGy0Nn9fbR3A7QY-4" value="" style="endArrow=block;endSize=16;endFill=0;html=1;rounded=0;fontColor=default;" edge="1" parent="1" source="UoKDYYbOme_sjAcY1qkX-10" target="yW5Bokzwv89O6nSTkkF2-5">
          <mxGeometry width="160" relative="1" as="geometry">
            <mxPoint x="520" y="154" as="sourcePoint" />
            <mxPoint x="370" y="280" as="targetPoint" />
            <Array as="points">
              <mxPoint x="440" y="239" />
              <mxPoint x="440" y="270" />
            </Array>
          </mxGeometry>
        </mxCell>
        <mxCell id="o7UzDFGy0Nn9fbR3A7QY-5" value="" style="endArrow=block;endSize=16;endFill=0;html=1;rounded=0;fontColor=default;" edge="1" parent="1" source="UoKDYYbOme_sjAcY1qkX-21" target="UoKDYYbOme_sjAcY1qkX-6">
          <mxGeometry width="160" relative="1" as="geometry">
            <mxPoint x="830" y="-20" as="sourcePoint" />
            <mxPoint x="680" y="106" as="targetPoint" />
            <Array as="points" />
          </mxGeometry>
        </mxCell>
        <mxCell id="o7UzDFGy0Nn9fbR3A7QY-6" value="" style="endArrow=block;endSize=16;endFill=0;html=1;rounded=0;fontColor=default;" edge="1" parent="1" source="UoKDYYbOme_sjAcY1qkX-25" target="UoKDYYbOme_sjAcY1qkX-10">
          <mxGeometry width="160" relative="1" as="geometry">
            <mxPoint x="740" y="190" as="sourcePoint" />
            <mxPoint x="680" y="190" as="targetPoint" />
            <Array as="points" />
          </mxGeometry>
        </mxCell>
        <mxCell id="o7UzDFGy0Nn9fbR3A7QY-7" value="" style="endArrow=block;endSize=16;endFill=0;html=1;rounded=0;fontColor=default;" edge="1" parent="1" source="UoKDYYbOme_sjAcY1qkX-28" target="UoKDYYbOme_sjAcY1qkX-25">
          <mxGeometry width="160" relative="1" as="geometry">
            <mxPoint x="990" y="180" as="sourcePoint" />
            <mxPoint x="930" y="180" as="targetPoint" />
            <Array as="points" />
          </mxGeometry>
        </mxCell>
      </root>
    </mxGraphModel>
  </diagram>
</mxfile>
